<svg width="32" height="32" viewBox="0 0 32 32" fill="none" xmlns="http://www.w3.org/2000/svg">
<path fill-rule="evenodd" clip-rule="evenodd" d="M15.7131 2C16.2521 2 17.0484 2.049 17.4894 2.11025C17.9304 2.18375 18.6409 2.35526 19.0819 2.50226C19.5229 2.63702 20.3437 2.99227 20.9195 3.28628C21.4952 3.58029 22.365 4.1683 22.8673 4.58482C23.3695 5.01358 24.08 5.74859 24.4353 6.21411C24.7906 6.67962 25.2438 7.37789 25.4398 7.74539C25.6358 8.1129 25.9788 8.94592 26.1993 9.58294C26.5791 10.6977 26.6036 10.8325 26.6036 12.6455C26.6158 14.0421 26.5546 14.8016 26.3953 15.4998C26.2728 16.0879 26.1871 16.5656 26.1871 16.5656C25.4398 16.3595 23.9208 15.5856 23.9208 15.5856C24.0282 14.8341 24.0495 14.0794 24.0678 13.3193C24.1168 11.837 24.0923 11.3225 23.9208 10.6855C23.8105 10.2445 23.541 9.55844 23.345 9.15418C23.1368 8.74992 22.708 8.0884 22.4017 7.68414C22.0955 7.29213 21.5197 6.69187 21.14 6.37336C20.748 6.05485 20.0252 5.60159 19.5474 5.36883C19.0574 5.13608 18.2979 4.85432 17.8569 4.73182C17.3546 4.59707 16.6073 4.51131 15.8356 4.51131C15.0761 4.51131 14.3043 4.59707 13.8143 4.71957C13.3733 4.82982 12.577 5.14833 12.038 5.41784C11.499 5.68734 10.7272 6.20186 10.3229 6.55711C9.91868 6.91237 9.37967 7.48814 9.13466 7.8189C8.88965 8.14965 8.49764 8.82342 8.25264 9.31343C8.00763 9.7912 7.75038 10.4527 7.67687 10.7835C7.59112 11.102 7.49312 11.9595 7.38287 14.0298L6.28034 14.3851C5.68007 14.5811 5.15331 14.7158 5.11656 14.6668C5.07981 14.6178 5.03081 14.0543 5.00631 13.405C4.98181 12.7435 5.03081 11.7512 5.11656 11.1755C5.19006 10.5997 5.41057 9.71769 5.59432 9.21543C5.76583 8.71317 6.15784 7.85565 6.46409 7.31663C6.84385 6.65512 7.37062 5.9936 8.11788 5.23408C8.8284 4.52356 9.57567 3.9233 10.2004 3.55579C10.7395 3.23728 11.597 2.83302 12.0992 2.64927C12.6015 2.47776 13.3978 2.25726 13.8755 2.1715C14.3533 2.08575 15.1741 2 15.7131 2ZM16.3868 6.48361C16.7544 6.52036 17.3669 6.63062 17.7344 6.72862C18.1019 6.82662 18.7389 7.08388 19.1309 7.29213C19.5352 7.51264 20.1967 8.0149 20.6009 8.43141C21.0175 8.83567 21.5197 9.49719 21.7402 9.90145C21.9485 10.2935 22.218 10.955 22.316 11.3592C22.4262 11.788 22.512 12.5843 22.512 13.258C22.512 13.895 22.463 14.4953 22.414 14.5811C22.3405 14.7158 22.12 14.6791 20.2089 14.0543L20.1599 13.0743C20.1232 12.3025 20.0374 11.9227 19.7557 11.3102C19.5229 10.8202 19.1677 10.3302 18.8002 9.99945C18.4816 9.70544 17.9671 9.33793 17.6486 9.19093C17.1831 8.98268 16.8279 8.92142 15.9581 8.92142C15.0271 8.90917 14.7576 8.95818 14.1818 9.21543C13.8143 9.38694 13.263 9.77895 12.969 10.073C12.675 10.3792 12.2952 10.9305 12.1237 11.298C11.9522 11.6655 11.7807 12.2413 11.6705 13.1845L10.7517 13.3315C10.2494 13.4173 9.69817 13.4908 9.22041 13.503L9.31841 12.621C9.37967 12.131 9.53892 11.396 9.67367 10.9917C9.80843 10.5875 10.0534 10.0117 10.2372 9.70544C10.4087 9.39919 10.8007 8.88467 11.107 8.56616C11.4132 8.23541 11.9767 7.7699 12.3442 7.52489C12.7118 7.27988 13.3243 6.98588 13.6918 6.85112C14.0593 6.72862 14.6718 6.58161 15.0393 6.53261C15.4068 6.47136 16.0193 6.45911 16.3868 6.48361ZM15.8968 10.5752C16.0683 10.563 16.4113 10.6242 16.6686 10.6855C16.9136 10.759 17.3424 11.0162 17.6241 11.2735C17.8936 11.5185 18.1631 11.886 18.2244 12.0943C18.2734 12.3025 18.3591 12.621 18.3836 12.8293C18.4204 13.0375 18.4081 13.2825 18.3469 13.3805C18.2489 13.5398 18.1264 13.5398 17.3424 13.405C16.8524 13.3193 15.7988 13.209 15.0026 13.16C13.5815 13.0743 13.5693 13.0743 13.5693 12.768C13.5693 12.5965 13.6918 12.2168 13.851 11.9227C13.998 11.6165 14.292 11.249 14.488 11.0897C14.684 10.9427 15.0271 10.759 15.2231 10.6977C15.4191 10.6365 15.7253 10.5752 15.8968 10.5752ZM15.9581 14.9118C17.4771 14.9363 18.4081 15.0221 19.3882 15.2181C20.1354 15.3651 21.3115 15.6836 22.022 15.9163C22.7325 16.1614 23.8228 16.5901 24.4475 16.8841C25.4643 17.3741 25.5623 17.4476 25.5011 17.7049C25.4643 17.8519 25.3541 18.0602 25.2561 18.1582C25.1091 18.3174 25.0111 18.3174 24.4475 18.1337C24.0923 18.0234 23.4185 17.8519 22.9408 17.7416C22.463 17.6436 21.483 17.4966 20.7357 17.4109C19.9149 17.3251 18.6164 17.3006 17.4281 17.3374C16.1786 17.3864 15.0271 17.5089 14.243 17.6681C13.5693 17.8151 12.5157 18.0969 11.9155 18.3052C11.3152 18.5134 10.3964 18.8932 9.89418 19.1504C9.39192 19.4077 8.7304 19.7874 7.87288 20.3632L7.65237 20.0937C7.51762 19.9345 7.12561 19.2852 6.77035 18.6482C6.40284 18.0112 6.08433 17.3986 6.03533 17.3006C5.98633 17.1659 6.15784 17.0311 6.67235 16.7861C7.06436 16.6024 7.76263 16.3206 8.24039 16.1491C8.71815 15.9776 9.64917 15.7081 10.3229 15.5366C10.9967 15.3773 11.9277 15.1813 12.4055 15.1078C12.8833 15.0343 13.3978 14.9486 13.5693 14.9241C13.7408 14.8873 14.8066 14.8873 15.9581 14.9118ZM20.3682 18.9667C21.3115 18.9912 22.4385 19.1137 23.1245 19.2607C23.7615 19.3954 24.3373 19.5547 24.4108 19.6282C24.4965 19.7017 24.4353 19.8855 23.9208 20.6205L22.757 20.6695C22.12 20.7062 21.091 20.8165 20.4907 20.9145C19.8904 21.0247 18.8124 21.3065 18.1019 21.5515C17.3914 21.7842 16.3746 22.2008 15.8356 22.4703C15.2966 22.7398 14.39 23.291 13.8143 23.683C13.2385 24.0873 12.4667 24.6753 11.4255 25.6308L11.2172 25.3613C11.0947 25.2021 10.6169 24.5406 10.1392 23.8913C9.30616 22.7275 9.28166 22.6785 9.50217 22.4335C9.61242 22.2988 10.0657 21.9435 10.5067 21.6617C10.9477 21.3677 11.7195 20.9267 12.2217 20.6695C12.724 20.4122 13.6918 20.0325 14.3655 19.8119C15.0393 19.5914 16.1173 19.3219 16.7544 19.2117C17.3914 19.1014 18.1141 18.9912 18.3469 18.9667C18.5796 18.9422 19.4984 18.9422 20.3682 18.9667ZM22.61 21.8455C22.757 21.8332 22.8795 21.87 22.8795 21.9313C22.8795 21.9803 22.4997 22.5193 22.0465 23.1195C21.581 23.7198 20.7234 24.7978 20.1354 25.5083C19.5474 26.2189 18.4204 27.4929 17.6364 28.3627C16.8401 29.2202 16.0928 29.9552 15.9581 29.992C15.7621 30.0532 15.4558 29.8082 13.3855 27.7256L13.7408 27.1989C13.9368 26.9049 14.537 26.2311 15.0883 25.6921C15.6396 25.1531 16.4603 24.4548 16.9381 24.1486C17.4159 23.83 18.2366 23.3645 18.7757 23.095C19.3147 22.8255 20.1354 22.4948 20.6009 22.3478C21.0665 22.213 21.6422 22.0415 21.8872 21.9803C22.1322 21.9068 22.4507 21.8577 22.61 21.8455Z" fill="#FF5001"/>
</svg>
