<svg width="60" height="60" viewBox="0 0 60 60" fill="none" xmlns="http://www.w3.org/2000/svg">
<rect x="1.25" y="1.25" width="57.5" height="57.5" rx="6.75" fill="#FBEAE9"/>
<rect x="1.25" y="1.25" width="57.5" height="57.5" rx="6.75" stroke="#E26E6A" stroke-width="2.5"/>
<path fill-rule="evenodd" clip-rule="evenodd" d="M19.1352 35.2221L27.0242 20.5057C28.2791 18.1648 31.7209 18.1648 32.9758 20.5057L40.8648 35.2221C42.0307 37.397 40.4095 40 37.889 40H22.1111C19.5905 40 17.9693 37.397 19.1352 35.2221ZM30 22.5C30.6904 22.5 31.25 23.0596 31.25 23.75V32.5C31.25 33.1904 30.6904 33.75 30 33.75C29.3096 33.75 28.75 33.1904 28.75 32.5V23.75C28.75 23.0596 29.3096 22.5 30 22.5ZM28.4375 35.9375C28.4375 36.8004 29.1371 37.5 30 37.5C30.8629 37.5 31.5625 36.8004 31.5625 35.9375C31.5625 35.0746 30.8629 34.375 30 34.375C29.1371 34.375 28.4375 35.0746 28.4375 35.9375Z" fill="#D42620"/>
</svg>
