<svg width="180" height="160" viewBox="0 0 180 160" fill="none" xmlns="http://www.w3.org/2000/svg">
<path d="M45.4057 129.934C39.3787 135.46 31.7899 142.897 32.7837 143.593C33.3485 143.993 40.1488 136.955 46.6626 130.711L45.4057 129.934Z" fill="#F56630"/>
<path d="M17.815 130.407C17.7065 128.355 19.1895 127.058 19.6588 128.23C20.1281 129.402 21.0687 129.64 21.538 128.935C21.598 128.785 21.626 128.624 21.6205 128.463C21.615 128.302 21.5761 128.144 21.506 127.999C21.4359 127.853 21.3365 127.724 21.2138 127.619C21.0911 127.515 20.9481 127.437 20.7937 127.391C20.6249 127.371 20.4665 127.299 20.3406 127.185C20.2149 127.071 20.1279 126.919 20.0919 126.754C20.0559 126.588 20.0727 126.415 20.1399 126.259C20.2072 126.103 20.3217 125.971 20.467 125.884C22.2243 124.87 25.2002 124.959 24.9869 126.113C24.7889 127.182 20.1368 132.061 19.7627 132.435C18.4319 133.766 17.9045 132.122 17.815 130.407Z" fill="#F56630"/>
<path d="M18.7737 125.383C18.7743 125.904 18.5738 126.405 18.2141 126.782C17.8545 127.158 17.3634 127.381 16.8431 127.404C16.272 127.384 15.7282 127.154 15.3161 126.758C14.9039 126.362 14.6521 125.828 14.6089 125.258C14.6527 122.532 18.7746 122.756 18.7737 125.383Z" fill="#F56630"/>
<path d="M35.9136 144.833C35.5757 145.476 36.1773 145.824 36.7304 145.321C39.7355 142.592 46.0368 136.497 49.9626 132.758L49.0354 132.111C44.0758 136.357 36.631 143.467 35.9136 144.833Z" fill="#F56630"/>
<path d="M34.9578 122.744C28.9918 128.232 21.7128 135.398 22.6881 136.081C23.2401 136.468 29.7493 129.754 36.1255 123.622L34.9578 122.744Z" fill="#F56630"/>
<path d="M25.8172 137.32C25.4792 137.963 26.0808 138.312 26.6349 137.809C29.488 135.222 35.2994 129.607 39.2397 125.843L38.3383 125.116C33.3988 129.398 26.5069 136.008 25.8172 137.32Z" fill="#F56630"/>
<path fill-rule="evenodd" clip-rule="evenodd" d="M20.093 114.293C12.2683 118.5 4.37803 123.436 0.301955 127.94C-0.434421 128.754 0.0358364 129.005 3.28962 130.745C8.54965 133.555 21.0838 140.253 47.5541 159.498C48.2915 160.035 48.3529 159.973 49.6208 158.701C51.3141 157.001 55.1595 153.142 65.6413 145.663C65.9947 145.41 66.34 145.165 66.6775 144.925C66.1777 144.603 65.6374 144.254 65.0529 143.875C57.07 149.476 52.5002 153.135 48.4547 157.599C47.9473 158.16 46.5499 157.058 43.4814 154.639C38.3877 150.623 28.6891 142.976 10.8115 133.274C3.49945 129.305 2.00727 128.785 2.04958 128.469C2.06083 128.385 2.18029 128.315 2.32772 128.2C7.69936 123.947 13.3386 120.043 19.2106 116.512C20.0548 116.089 20.8593 115.686 21.6259 115.302C21.0897 114.95 20.579 114.614 20.093 114.293Z" fill="#F56630"/>
<path fill-rule="evenodd" clip-rule="evenodd" d="M68.6414 22.5391C65.9699 23.1291 64.2511 23.5368 64.2542 23.5528C14.6154 34.9177 9.53343 35.5668 8.96187 37.5292C8.89057 37.7742 8.88953 38.0398 8.88086 38.349C8.66372 46.0774 9.69374 77.4885 10.3273 96.8104C10.438 100.187 10.5366 103.194 10.6144 105.642C10.689 107.979 10.7191 107.999 25.5971 117.748C27.9975 119.32 30.7842 121.147 34.0201 123.277C70.2896 147.151 72.2991 148.785 73.5566 148.332C73.6605 148.295 73.7593 148.243 73.8718 148.188C74.6096 147.831 151.41 105.737 151.623 104.457C151.651 104.284 151.682 104.132 151.682 103.981C151.685 102.445 148.653 100.904 110.676 77.2069C108.727 75.9905 107.187 75.0738 105.973 74.3506C101.988 71.9771 101.505 71.6895 101.511 69.7369C101.512 69.5217 101.513 69.2257 101.515 68.8567C101.53 65.552 101.572 56.385 101.37 46.7346C100.985 46.8559 100.575 46.9731 100.138 47.0841C100.228 52.5636 100.246 57.676 100.259 61.1412C100.266 63.0334 100.271 64.4345 100.285 65.1361C100.394 70.7273 100.467 71.5376 100.129 71.7838C100.057 71.8352 99.9688 71.8621 99.8593 71.9026C94.6588 73.8275 58.9508 88.0629 58.6205 88.1952C16.884 104.857 12.4084 107.031 11.9602 106.39C11.864 106.252 11.9534 105.984 11.8995 105.703C11.7491 104.918 10.2193 50.7464 10.2193 50.7197C10.1713 47.4435 10.0875 44.9692 10.024 43.0931C9.82749 37.2957 9.82454 37.2107 11.6729 36.8316C17.6773 35.6006 27.4521 33.3109 38.3058 30.7685C48.1916 28.4529 58.9725 25.9275 68.6145 23.8015C68.6121 23.3772 68.6213 22.9563 68.6414 22.5391ZM42.8549 126.789C58.2672 136.982 73.1476 146.822 73.8908 146.368L73.888 146.365C81.1828 141.912 103.74 129.516 122.46 119.23C137.61 110.905 150.245 103.962 150.239 103.729C150.239 103.719 150.238 103.709 150.237 103.7C150.205 103.39 149.481 103.15 124.218 87.2499C102.827 73.7911 101.656 72.496 100.873 72.6996C100.805 72.7174 100.74 72.7467 100.664 72.7803C95.1443 75.2304 52.405 92.1087 24.9849 102.937C20.6027 104.668 16.6118 106.244 13.2265 107.582C19.6896 111.47 31.4187 119.226 42.8549 126.789Z" fill="#111827"/>
<path fill-rule="evenodd" clip-rule="evenodd" d="M68.9501 27.6973C64.256 28.8547 60.51 29.8555 59.5363 30.1166C59.5424 30.1405 54.4866 31.3172 47.8011 32.8731C37.9724 35.1607 24.6212 38.268 18.6546 39.737C15.9892 40.3939 15.8407 40.5805 15.8283 43.3611C15.8064 48.6968 15.8283 49.7088 16.4794 72.4986C17.1176 94.859 16.9258 96.5935 17.686 97.2913C17.7785 97.376 17.8852 97.4455 18.0092 97.535C18.0262 97.5473 18.0428 97.5597 18.0593 97.5712C19.3624 98.5231 19.5221 98.6402 95.2757 68.8002C95.8069 68.5903 96.1915 68.4783 96.4647 68.2397C97.4547 67.3781 97.0073 64.8666 96.8931 50.1343C96.8892 49.6668 96.8759 48.8192 96.8502 47.7056C96.5085 47.7494 96.1686 47.7867 95.8297 47.8174C95.8973 50.7004 95.943 53.9352 95.9601 57.5643C96.0001 65.9496 96.102 67.0629 95.645 67.387C95.5565 67.45 95.4461 67.4832 95.3109 67.5341C25.8127 93.6205 18.7669 97.3998 18.2067 96.6059C18.1008 96.4555 18.2268 96.1423 18.2063 95.7843C18.2063 95.7767 18.0459 89.867 17.8322 81.9943C17.4056 66.2741 16.7665 42.7265 16.7679 42.71C16.7754 42.1903 16.7541 41.8401 16.8896 41.5682C17.3325 40.6799 19.4491 40.6262 29.7144 38.2263C39.2224 36.0033 47.6946 33.984 55.1124 32.2159C60.3237 30.9739 65.0147 29.8558 69.1785 28.8784C69.0927 28.4881 69.0165 28.0943 68.9501 27.6973Z" fill="#111827"/>
<path d="M64.2991 132.833C63.4242 132.444 56.4492 128.078 54.4454 126.83C53.1545 126.026 51.1554 128.718 122.425 91.9088C123.46 91.3738 123.046 91.4023 131.175 96.1269C133.518 97.4882 136.35 95.3939 90.4236 119.383C65.7936 132.251 65.945 132.241 64.2991 132.833ZM118.549 103.48C117.883 102.925 117.774 102.968 111.854 99.1008C111.111 98.6153 111.673 98.7248 84.8527 112.005C92.1533 117.527 91.8134 117.518 92.7378 117.027L118.549 103.48ZM65.1139 121.864C73.1104 127.621 72.5325 127.602 73.4169 127.141C90.9176 117.99 90.5664 118.185 90.8777 117.907C83.2573 112.464 83.8789 112.495 82.9479 112.956L65.1139 121.864ZM130.73 97.0845C123.037 92.8217 123.445 92.6941 122.435 93.2234C120.472 94.2506 122.19 93.3319 112.937 98.0584C120.098 102.89 119.741 102.872 120.292 102.58L130.73 97.0845ZM55.9847 126.472C64.2229 131.725 64.2067 131.708 64.2305 131.725C64.6646 132.121 64.3581 131.958 71.7234 128.05C64.3562 122.909 64.0658 122.015 61.7174 123.46C59.922 124.565 57.921 125.328 55.9847 126.472Z" fill="#111827"/>
<path d="M44.0977 113.188C38.3098 115.869 38.2565 116.191 37.2046 115.496C28.0249 109.431 26.4285 109.296 28.6932 108.301C43.8768 101.628 65.4843 92.4638 99.1464 78.0693C99.9727 77.7152 99.5272 77.7266 108.499 82.533C109.57 83.108 112.554 81.4763 44.0977 113.188ZM40.7068 104.318C41.3256 104.881 43.1734 105.996 48.4881 109.712C49.124 110.157 48.6785 110.138 68.0394 101.056C60.675 95.2949 60.8178 95.6938 60.2505 95.9403L40.7068 104.318ZM99.0988 86.6731C92.0848 82.1189 92.7854 82.0142 91.8535 82.4188L76.6669 88.9482C77.2705 89.5251 76.6764 88.9644 83.2478 93.5433C83.839 93.9584 83.4192 93.9279 99.0988 86.6731ZM81.9798 94.5847C80.7822 93.6052 78.6841 92.1763 75.8387 90.0077C75.0534 89.4099 75.458 89.3271 65.6985 93.6252C64.527 94.0621 63.3866 94.5771 62.2848 95.1683C64.6371 96.8599 66.9237 98.5001 69.2046 100.154C69.6967 100.506 69.3416 100.467 81.9817 94.5847H81.9798ZM29.3005 109.15C38.7296 115.042 38.1822 115.016 38.959 114.643C42.448 112.973 43.5189 112.48 47.5266 110.6C44.7441 108.535 42.8535 107.322 40.7592 105.636C39.2361 104.403 39.4598 104.851 29.3024 109.147L29.3005 109.15ZM107 83.0461C99.67 78.7233 100.056 78.8965 99.4501 79.1583C93.7174 81.6334 95.6689 80.7605 93.725 81.6658C100.605 86.099 100.073 86.2485 100.69 85.9638L107 83.0461Z" fill="#111827"/>
<path d="M51.3154 124.394C50.7337 124.079 51.3011 124.413 40.9524 117.936C40.2289 117.484 39.9052 117.771 47.8388 114.024C111.985 83.7344 110.516 83.744 112.551 84.9815C122.672 91.134 123.667 88.8484 113.97 93.6338C73.1856 113.76 54.8947 122.786 51.3154 124.394ZM64.2781 107.467C72.1013 112.475 71.8624 113.418 73.0733 112.817L93.4879 102.702C86.1227 97.5445 86.2378 97.0771 84.5348 97.8995C79.0868 100.532 75.7844 102.024 64.2781 107.467ZM42.8382 117.663C43.4094 118.118 46.5508 120.018 51.4544 123.159C52.0008 123.509 51.6181 123.503 70.8838 113.866C68.3249 111.943 65.8574 110.099 63.4081 108.234C62.7027 107.696 42.8677 117.65 42.8382 117.663ZM107.462 95.8224C99.7318 90.7199 100.417 90.4771 99.6357 90.8417C86.8604 96.8391 87.2031 96.385 87.9266 96.9028C95.051 102.023 94.7169 102.11 95.29 101.827L107.462 95.8224ZM101.198 90.1278C109.163 94.6515 108.554 95.3083 109.585 94.7924L119.098 90.1087C110.653 85.2909 111.111 85.3137 110.442 85.6688C108.25 86.8331 105.254 88.2124 101.198 90.1278Z" fill="#111827"/>
<path d="M121.983 113.577C114.419 109.414 114.385 109.592 114.653 109.04C114.969 108.383 115.019 108.497 122.587 112.604C123.86 113.295 123.856 114.012 122.612 114.719C115.279 118.881 107.904 122.965 100.486 126.97C93.6205 130.671 93.5758 130.925 92.3116 130.112C85.3861 125.667 85.4813 125.582 85.765 125.162C86.0772 124.698 86.0563 124.638 92.7371 129.021C93.8461 129.748 93.0455 129.612 107.246 121.724C116.46 116.606 121.549 113.929 121.983 113.577Z" fill="#111827"/>
<path d="M48.2013 48.5291C47.8643 37.2342 47.7501 37.3684 49.4922 36.7944C51.2342 36.2203 52.1672 36.0195 66.1609 33.057C68.3618 32.5905 68.4399 31.293 68.9501 51.4726C69.0244 54.4036 67.6174 52.93 51.0867 58.4371C47.9319 59.4871 48.4602 57.2405 48.2013 48.5291ZM49.4864 47.6838C49.4864 57.388 49.1219 57.5337 50.4717 57.2985C51.8997 57.0529 52.5794 56.5265 66.6093 52.792C69.1491 52.1161 67.4479 52.118 67.3213 34.9742C67.3099 33.433 67.2985 33.8071 57.936 35.8776C49.4712 37.7511 49.1209 37.4417 49.0971 39.0657C49.0581 41.9425 49.2913 44.8098 49.4864 47.6838Z" fill="#111827"/>
<path d="M57.6781 45.3049C55.959 45.7484 54.216 46.0939 52.4576 46.3397C51.7912 46.4349 51.6247 46.1741 51.8065 45.4906C53.1345 40.4871 60.6244 44.5529 57.6781 45.3049Z" fill="#111827"/>
<path d="M54.0827 42.5612C51.8237 42.5412 51.9694 38.9818 54.7396 38.9952C56.9757 39.0066 56.8824 42.5878 54.0827 42.5612Z" fill="#111827"/>
<path d="M65.233 36.8496C66.5277 36.8972 66.7562 37.8692 59.4204 38.9801C58.8549 39.0658 57.0224 38.3251 65.233 36.8496Z" fill="#111827"/>
<path d="M63.7298 39.1714C64.1953 39.1904 64.5199 39.1162 64.5703 39.4846C64.6151 39.8206 64.3238 39.9387 64.0677 39.9986C59.6744 41.0134 59.3641 41.1591 59.2556 40.5698C59.1471 39.9805 59.7887 40.0177 63.7298 39.1714Z" fill="#111827"/>
<path d="M55.1554 54.3292C54.094 54.0274 54.3206 53.9865 53.4829 54.6786C53.4075 54.7409 53.3161 54.7808 53.2192 54.7938C53.1223 54.8069 53.0236 54.7925 52.9344 54.7524C52.8453 54.7123 52.7692 54.648 52.7146 54.5668C52.6601 54.4856 52.6294 54.3908 52.6261 54.293C52.5861 53.1887 52.6946 53.3934 51.776 52.8089C51.6935 52.7566 51.6272 52.6821 51.5848 52.5941C51.5424 52.506 51.5255 52.4078 51.536 52.3107C51.5465 52.2135 51.584 52.1211 51.6443 52.0441C51.7045 51.9672 51.785 51.9087 51.8769 51.8751C52.9145 51.4943 52.7527 51.6618 53.025 50.6089C53.0497 50.5144 53.1004 50.4286 53.1713 50.3613C53.2421 50.294 53.3305 50.248 53.4261 50.2282C53.5219 50.2084 53.6212 50.2157 53.7129 50.2493C53.8047 50.283 53.8853 50.3416 53.9455 50.4186C54.6281 51.2867 54.4215 51.1858 55.5029 51.1192C55.6006 51.1131 55.698 51.1344 55.7842 51.1808C55.8704 51.2271 55.9419 51.2966 55.9906 51.3816C56.0393 51.4665 56.0633 51.5633 56.0599 51.6611C56.0565 51.7589 56.0258 51.8538 55.9713 51.935C55.3544 52.8518 55.3868 52.6223 55.7875 53.6343C55.823 53.7253 55.8323 53.8243 55.8145 53.9203C55.7967 54.0163 55.7524 54.1054 55.6867 54.1775C55.621 54.2498 55.5365 54.3022 55.4426 54.329C55.3488 54.3558 55.2493 54.3558 55.1554 54.3292Z" fill="#F56630"/>
<path d="M71.1788 42.1866C71.4035 49.6918 70.9475 51.6252 73.6634 50.7199C81.1613 48.2218 85.047 47.3918 87.0365 46.7968L85.8121 46.1881C74.9122 49.1083 74.3212 49.5384 73.138 49.7432C71.9756 49.946 72.2907 49.8194 72.2907 41.4612C72.1222 38.9861 71.9204 36.5158 71.9509 34.035L71.0844 33.4971C70.9275 34.6915 71.026 37.0853 71.1788 42.1866Z" fill="#F56630"/>
<path d="M74.286 39.5705C74.129 40.1607 74.2756 40.3825 74.8467 40.3044C75.1355 40.2639 75.4238 40.2203 75.7115 40.1735L74.5677 38.8354C74.4545 39.0502 74.3593 39.2943 74.286 39.5705Z" fill="#F56630"/>
<path d="M77.1712 47.1861C76.2621 46.9262 76.4582 46.8844 75.729 47.4879C75.6639 47.5413 75.5851 47.5755 75.5017 47.5866C75.4183 47.5977 75.3333 47.5853 75.2566 47.5507C75.1798 47.5162 75.1142 47.461 75.0672 47.3912C75.0201 47.3213 74.9934 47.2398 74.9903 47.1557C74.956 46.2104 75.0569 46.3855 74.2592 45.8781C74.1881 45.8329 74.1312 45.7688 74.0947 45.6928C74.0583 45.6169 74.0438 45.5324 74.053 45.4487C74.0621 45.365 74.0944 45.2855 74.1464 45.2193C74.1982 45.153 74.2676 45.1026 74.3467 45.0737C75.2349 44.7501 75.0997 44.8986 75.3358 43.9838C75.3567 43.9022 75.4 43.8281 75.4608 43.7698C75.5216 43.7116 75.5976 43.6715 75.68 43.6542C75.7624 43.6369 75.8481 43.643 75.9272 43.6717C76.0063 43.7005 76.0758 43.7509 76.1278 43.8172C76.7114 44.5616 76.5277 44.4835 77.4711 44.4207C77.5551 44.4154 77.6391 44.4337 77.7133 44.4736C77.7876 44.5136 77.8491 44.5735 77.8911 44.6466C77.9329 44.7197 77.9535 44.8032 77.9505 44.8874C77.9474 44.9716 77.9208 45.0534 77.8737 45.1232C77.3473 45.9086 77.3673 45.7077 77.7148 46.5864C77.7457 46.6647 77.7541 46.7501 77.739 46.833C77.724 46.9159 77.686 46.9929 77.6295 47.0552C77.5728 47.1177 77.5 47.163 77.419 47.1861C77.338 47.2093 77.2521 47.2093 77.1712 47.1861Z" fill="#F56630"/>
<path d="M23.9218 78.9834C23.6096 68.1606 23.6505 68.1854 25.3973 67.4905C27.2498 66.7537 28.5959 66.4366 43.3036 62.5117C45.851 61.832 45.7321 61.4751 45.9539 80.4979C45.99 83.6393 46.1442 82.1352 28.5217 89.3358C23.1783 91.5187 24.2588 90.6705 23.9218 78.9834ZM25.3021 78.9434C25.5382 89.0341 24.9261 89.0588 26.1399 88.9056C26.8224 88.8199 27.2118 88.58 29.7287 87.6033C45.5607 81.4622 45.0771 82.7074 44.9667 80.2323C44.1737 62.5727 45.1971 63.0115 43.3093 63.5379C37.5776 65.1334 29.3042 67.3877 26.2512 68.2711C24.6148 68.7451 25.0651 68.8099 25.3021 78.9434Z" fill="#111827"/>
<path d="M34.9911 75.0497C34.8788 75.6285 34.7645 75.5838 29.959 76.9346C28.5045 77.3439 27.6011 77.5762 27.899 76.4919C29.1299 72.0035 35.2462 73.7322 34.9911 75.0497Z" fill="#111827"/>
<path d="M30.2326 73.1797C27.8527 73.1368 28.4496 69.309 31.3654 69.3719C33.8357 69.4328 33.1884 73.2339 30.2326 73.1797Z" fill="#111827"/>
<path d="M36.2781 69.0275C35.4547 69.0865 35.4766 68.5011 36.0411 68.3012C45.4531 64.9845 45.4321 66.9579 36.2781 69.0275Z" fill="#111827"/>
<path d="M36.7132 70.9831C35.7908 70.9965 35.8917 70.4224 36.3543 70.1845C37.8952 69.611 39.4848 69.1777 41.1036 68.8898C41.4244 68.8155 43.6073 69.3696 36.7132 70.9831Z" fill="#111827"/>
<path d="M30.7405 85.5546C29.6782 85.2519 29.9047 85.2119 29.0679 85.904C28.9925 85.9658 28.9012 86.0049 28.8044 86.0182C28.7075 86.0306 28.6091 86.0163 28.5201 85.9763C28.431 85.9363 28.3549 85.8726 28.3004 85.7916C28.2458 85.7098 28.2149 85.6155 28.2112 85.5184C28.1712 84.4142 28.2797 84.6188 27.3611 84.0343C27.2786 83.982 27.2124 83.9068 27.17 83.8192C27.1277 83.7307 27.1109 83.6326 27.1215 83.5355C27.1321 83.4384 27.1697 83.3461 27.23 83.269C27.2904 83.1918 27.3711 83.1338 27.463 83.1005C28.4996 82.7197 28.3388 82.8863 28.6053 81.8344C28.63 81.7392 28.6807 81.6535 28.7516 81.5869C28.8225 81.5193 28.9108 81.4726 29.0065 81.4536C29.1022 81.4336 29.2015 81.4403 29.2933 81.4745C29.385 81.5078 29.4656 81.5669 29.5258 81.644C30.2084 82.5121 30.0018 82.4112 31.0842 82.3446C31.1818 82.3379 31.2791 82.3589 31.3652 82.4055C31.4514 82.4522 31.5228 82.5217 31.5714 82.6064C31.62 82.6911 31.6439 82.7882 31.6405 82.8853C31.637 82.9834 31.6061 83.0776 31.5516 83.1595C30.9357 84.0762 30.9671 83.8477 31.3688 84.8597C31.4039 84.9501 31.413 85.0482 31.3954 85.1443C31.3777 85.2395 31.3338 85.328 31.2687 85.4004C31.2036 85.4727 31.1197 85.5251 31.0264 85.5517C30.9331 85.5794 30.8342 85.5803 30.7405 85.5546Z" fill="#F56630"/>
<path d="M36.3752 83.9127C35.3128 83.6099 35.5403 83.57 34.7026 84.262C34.6271 84.3239 34.5358 84.3629 34.4391 84.3763C34.3423 84.3886 34.2438 84.3744 34.1547 84.3344C34.0657 84.2944 33.9896 84.2306 33.935 84.1497C33.8805 84.0688 33.8496 83.9736 33.8458 83.8765C33.8068 82.7722 33.9153 82.9769 32.9967 82.3924C32.9141 82.34 32.848 82.2658 32.8055 82.1773C32.7631 82.0897 32.7462 81.9907 32.7567 81.8936C32.7672 81.7965 32.8047 81.7041 32.8649 81.627C32.9252 81.5509 33.0058 81.4918 33.0976 81.4585C34.1352 81.0777 33.9734 81.2443 34.2456 80.1924C34.2702 80.0972 34.3207 80.0116 34.3916 79.9444C34.4624 79.8771 34.5506 79.831 34.6463 79.8112C34.742 79.7914 34.8413 79.7987 34.9329 79.8324C35.0247 79.8661 35.1051 79.9247 35.1652 80.002C35.8478 80.8702 35.6412 80.7693 36.7236 80.7027C36.8212 80.696 36.9187 80.717 37.005 80.7636C37.0912 80.8093 37.1628 80.8788 37.2116 80.9645C37.2604 81.0492 37.2844 81.1453 37.2809 81.2434C37.2774 81.3414 37.2467 81.4357 37.1919 81.5176C36.5751 82.4343 36.6074 82.2049 37.0082 83.2177C37.0438 83.3082 37.0531 83.4081 37.0353 83.5043C37.0175 83.5995 36.9732 83.689 36.9074 83.7613C36.8415 83.8337 36.7568 83.886 36.6628 83.9127C36.5688 83.9393 36.4691 83.9393 36.3752 83.9127Z" fill="#F56630"/>
<path d="M71.8108 62.9329C71.9136 53.8894 71.4016 53.5343 73.0742 52.984C77.3713 51.5704 77.3702 51.6294 87.0554 49.081C89.9636 48.3195 89.5258 47.1962 89.8781 64.7883C89.9235 65.2397 89.8113 65.6929 89.5606 66.071C89.3098 66.4491 88.9359 66.7288 88.5025 66.8626C87.3601 67.3481 73.8347 72.6029 73.7128 72.6276C71.6242 73.0398 72.1964 73.2807 71.8241 65.31C71.7775 64.3171 71.8032 63.626 71.8108 62.9329ZM72.9533 62.8377C73.136 71.6814 72.5438 72.0174 74.2573 71.3396C89.2773 65.3956 89.1554 66.4085 89.0602 64.5227C88.2987 49.3866 89.3687 49.3666 87.639 49.8435L73.7928 53.6514C72.3487 54.0502 72.7848 54.6138 72.9552 62.8339L72.9533 62.8377Z" fill="#111827"/>
<path d="M78.4679 58.3296C79.2866 58.3296 80.9773 58.9008 80.8678 59.6538C80.7859 60.2126 80.5213 60.1821 76.6554 61.2435C75.7501 61.4929 75.3684 61.6243 75.1409 61.3225C74.7382 60.7856 75.6663 58.3286 78.4679 58.3296Z" fill="#111827"/>
<path d="M77.1275 57.9517C75.0531 57.9812 75.4901 54.6903 77.8586 54.7037C79.8443 54.7151 79.5178 57.9146 77.1275 57.9517Z" fill="#111827"/>
<path d="M86.9254 52.2979C87.6584 52.3283 87.5823 52.7814 87.0435 52.9909C85.3765 53.6075 83.6667 54.1014 81.9277 54.4683C81.4031 54.5692 81.1832 54.0333 81.7677 53.8343C83.4548 53.2197 85.1771 52.7067 86.9254 52.2979Z" fill="#111827"/>
<path d="M82.0519 55.4537C86.3747 53.7964 86.8488 54.7626 86.0234 55.0729C80.8295 57.0064 81.5825 55.6346 82.0519 55.4537Z" fill="#111827"/>
<path d="M77.6349 68.6067C76.7287 68.3468 76.9219 68.3144 76.207 68.9046C76.1427 68.9578 76.0648 68.9919 75.9821 69.003C75.8993 69.0143 75.8151 69.0021 75.7389 68.9679C75.6628 68.9337 75.5978 68.8789 75.5511 68.8097C75.5045 68.7405 75.4781 68.6597 75.475 68.5762C75.4416 67.6347 75.533 67.808 74.7496 67.3101C74.6791 67.2653 74.6226 67.2019 74.5863 67.1267C74.5501 67.0514 74.5357 66.9676 74.5445 66.8847C74.5535 66.8016 74.5855 66.7228 74.6368 66.657C74.6882 66.5913 74.7569 66.5411 74.8352 66.5124C75.7215 66.1877 75.5844 66.3305 75.8148 65.4309C75.8358 65.3502 75.8789 65.2768 75.9392 65.2193C75.9997 65.1617 76.075 65.1221 76.1567 65.1051C76.2383 65.0881 76.3232 65.0942 76.4016 65.1229C76.4799 65.1515 76.5488 65.2015 76.6002 65.2672C77.1799 66.0107 77.0048 65.9221 77.9329 65.865C78.0163 65.8598 78.0996 65.8781 78.1732 65.9177C78.2468 65.9574 78.3077 66.0168 78.3492 66.0893C78.3908 66.1618 78.4112 66.2446 78.408 66.3281C78.405 66.4116 78.3785 66.4926 78.3318 66.5619C77.8063 67.3463 77.8349 67.1473 78.1757 68.0126C78.2068 68.0905 78.2154 68.1755 78.2004 68.258C78.1856 68.3404 78.1477 68.4169 78.0913 68.4789C78.0349 68.5409 77.9621 68.5857 77.8815 68.6084C77.8008 68.6309 77.7154 68.6304 77.6349 68.6067Z" fill="#F56630"/>
<path d="M82.4453 66.8027C81.539 66.5428 81.7322 66.5095 81.0173 67.1007C80.953 67.1538 80.875 67.1879 80.7923 67.1991C80.7096 67.2102 80.6254 67.1981 80.5493 67.1639C80.4731 67.1298 80.408 67.075 80.3613 67.0058C80.3147 66.9366 80.2883 66.8556 80.2853 66.7722C80.251 65.8308 80.3433 66.0031 79.5599 65.5061C79.4894 65.4612 79.433 65.3976 79.3968 65.3223C79.3606 65.2471 79.3462 65.1633 79.3551 65.0802C79.364 64.9972 79.3959 64.9183 79.4473 64.8524C79.4986 64.7866 79.5672 64.7364 79.6456 64.7075C80.5318 64.3838 80.3947 64.5266 80.6251 63.627C80.6459 63.5462 80.6889 63.4727 80.7493 63.415C80.8096 63.3573 80.8849 63.3177 80.9666 63.3006C81.0484 63.2834 81.1332 63.2894 81.2116 63.3181C81.2901 63.3466 81.359 63.3966 81.4105 63.4623C81.9902 64.2058 81.8151 64.1172 82.7432 64.0601C82.8266 64.0549 82.9098 64.0732 82.9834 64.1128C83.057 64.1524 83.118 64.2119 83.1595 64.2844C83.201 64.3569 83.2214 64.4397 83.2183 64.5232C83.2153 64.6066 83.1888 64.6877 83.1421 64.757C82.6166 65.5414 82.6452 65.3434 82.986 66.2087C83.0171 66.2865 83.0257 66.3715 83.0107 66.4539C82.9958 66.5364 82.958 66.613 82.9016 66.675C82.8452 66.7369 82.7724 66.7818 82.6917 66.8043C82.6111 66.827 82.5256 66.8264 82.4453 66.8027Z" fill="#F56630"/>
<path d="M50.7441 60.1042C52.7223 59.2913 63.7373 56.4563 66.4276 55.7509C68.559 55.1922 68.2763 54.8828 68.6171 72.6339C68.6551 74.6235 68.2753 74.376 54.9479 79.4556C53.0231 80.1887 49.795 82.2516 49.7769 79.4232C49.6579 62.1804 48.6336 60.9724 50.7441 60.1042ZM50.7279 70.5186C50.8926 79.8735 50.3329 80.1011 51.9978 79.5051C53.42 78.9958 51.9578 79.3966 66.5485 74.0285C68.6656 73.2498 67.3272 72.9918 67.3519 57.4645C67.3519 56.0641 67.4366 56.424 59.3298 58.6496C49.9559 61.2199 50.5404 60.6764 50.4833 62.4575C50.3966 65.1496 50.6803 67.8303 50.7279 70.5186Z" fill="#111827"/>
<path d="M56.4274 65.7061C58.4161 65.7061 59.9335 67.1673 58.6369 67.6214C56.9611 68.2187 55.2427 68.6894 53.4964 69.0293C52.1979 69.2749 53.2984 65.7127 56.4274 65.7061Z" fill="#111827"/>
<path d="M57.2927 63.3751C57.2394 65.4085 53.7057 66.2795 53.72 63.8682C53.7324 61.7463 57.3565 60.9486 57.2927 63.3751Z" fill="#111827"/>
<path d="M60.3113 61.6186C59.5231 61.6719 59.4936 61.1665 60.0077 60.9675C66.8094 58.3258 69.1226 59.5253 60.3113 61.6186Z" fill="#111827"/>
<path d="M60.6264 63.4205C59.7944 63.4396 59.8781 62.8284 60.3808 62.6456C60.8834 62.4629 64.6826 61.192 64.8445 61.7784C64.9977 62.3305 63.7811 62.6571 60.6264 63.4205Z" fill="#111827"/>
<path d="M56.0361 76.1196C55.1299 75.8597 55.3231 75.8264 54.6082 76.4166C54.5439 76.4697 54.4659 76.5039 54.3832 76.515C54.3004 76.5262 54.2163 76.514 54.1401 76.4799C54.064 76.4457 53.9989 76.3909 53.9522 76.3217C53.9056 76.2525 53.8792 76.1716 53.8761 76.0882C53.8428 75.1477 53.9342 75.32 53.1508 74.823C53.0803 74.7781 53.0239 74.7145 52.9877 74.6392C52.9514 74.564 52.937 74.4801 52.9459 74.3971C52.9548 74.3141 52.9867 74.2352 53.038 74.1693C53.0894 74.1035 53.1581 74.0533 53.2364 74.0243C54.1227 73.6997 53.9856 73.8435 54.216 72.9439C54.2367 72.8631 54.2798 72.7896 54.3401 72.7319C54.4005 72.6742 54.4758 72.6346 54.5575 72.6175C54.6391 72.6003 54.7241 72.6063 54.8025 72.635C54.8809 72.6635 54.9498 72.7135 55.0014 72.7792C55.5811 73.5227 55.4059 73.4341 56.3341 73.377C56.4175 73.3718 56.5007 73.3901 56.5743 73.4297C56.6479 73.4693 56.7089 73.5288 56.7504 73.6013C56.7919 73.6738 56.8123 73.7566 56.8092 73.84C56.8061 73.9235 56.7797 74.0045 56.733 74.0739C56.2075 74.8583 56.236 74.6602 56.5768 75.5256C56.6079 75.6034 56.6165 75.6884 56.6016 75.7708C56.5867 75.8533 56.5489 75.9299 56.4924 75.9918C56.436 76.0538 56.3633 76.0987 56.2826 76.1212C56.2019 76.1439 56.1165 76.1433 56.0361 76.1196Z" fill="#F56630"/>
<path d="M60.8461 74.3148C59.9399 74.0549 60.1331 74.0216 59.4182 74.6127C59.3541 74.6657 59.2766 74.6998 59.1941 74.7112C59.1118 74.7225 59.0278 74.7107 58.9517 74.677C58.8758 74.6432 58.8107 74.589 58.7637 74.5203C58.7168 74.4516 58.69 74.3712 58.6862 74.2881C58.6519 73.3466 58.7442 73.5199 57.9608 73.022C57.8904 72.9772 57.8339 72.9135 57.7977 72.8383C57.7615 72.763 57.747 72.6791 57.756 72.5961C57.7649 72.5131 57.7968 72.4342 57.8481 72.3684C57.8995 72.3025 57.9682 72.2523 58.0464 72.2233C58.9327 71.8996 58.7956 72.0424 59.026 71.1428C59.0469 71.0621 59.0901 70.9887 59.1504 70.9312C59.2109 70.8736 59.2862 70.834 59.3678 70.817C59.4495 70.8 59.5343 70.8061 59.6128 70.8348C59.6911 70.8634 59.76 70.9134 59.8114 70.9791C60.3911 71.7226 60.2159 71.6341 61.1441 71.576C61.2276 71.571 61.3108 71.5894 61.3843 71.6292C61.4578 71.669 61.5187 71.7285 61.5602 71.801C61.6017 71.8737 61.6221 71.9564 61.619 72.0399C61.616 72.1235 61.5896 72.2045 61.543 72.2738C61.0175 73.0572 61.046 72.8592 61.3868 73.7245C61.417 73.8022 61.4248 73.8867 61.4094 73.9685C61.394 74.0503 61.3561 74.1262 61.2998 74.1876C61.2436 74.249 61.1713 74.2934 61.0912 74.3159C61.011 74.3384 60.9261 74.338 60.8461 74.3148Z" fill="#F56630"/>
<path d="M65.4576 72.7104C64.5513 72.4505 64.7455 72.4172 64.0296 73.0084C63.9654 73.0617 63.8875 73.0958 63.8048 73.1071C63.7222 73.1183 63.6379 73.1061 63.5619 73.072C63.4857 73.0377 63.4207 72.9828 63.3741 72.9135C63.3276 72.8443 63.3014 72.7633 63.2985 72.6799C63.2643 71.7385 63.3557 71.9117 62.5722 71.4138C62.5018 71.3691 62.4453 71.3054 62.4091 71.2302C62.373 71.1549 62.3586 71.071 62.3676 70.988C62.3766 70.9051 62.4086 70.8263 62.4601 70.7605C62.5117 70.6948 62.5805 70.6448 62.6588 70.6161C63.5441 70.2915 63.408 70.4343 63.6384 69.5347C63.6591 69.4539 63.7021 69.3806 63.7624 69.3229C63.8227 69.2653 63.898 69.2257 63.9797 69.2086C64.0613 69.1916 64.1461 69.1978 64.2244 69.2264C64.3028 69.2552 64.3715 69.3053 64.4228 69.3709C65.0025 70.1144 64.8274 70.0259 65.7555 69.9678C65.8391 69.9627 65.9224 69.981 65.9961 70.0206C66.0697 70.0603 66.1308 70.1198 66.1724 70.1925C66.214 70.265 66.2345 70.3478 66.2314 70.4315C66.2285 70.5151 66.2021 70.5962 66.1554 70.6656C65.6299 71.4491 65.6575 71.251 65.9983 72.1164C66.0294 72.1942 66.038 72.2793 66.023 72.3617C66.0082 72.4441 65.9703 72.5208 65.9139 72.5827C65.8575 72.6446 65.7848 72.6895 65.7041 72.7121C65.6234 72.7347 65.538 72.7341 65.4576 72.7104Z" fill="#F56630"/>
<path d="M23.9656 42.987C25.1261 42.452 24.9442 42.5434 41.5996 38.9374C42.8448 38.668 43.733 38.6013 43.8472 39.9188C44.3184 45.345 44.4803 52.5722 44.5326 58.0136C44.5555 60.3611 44.8182 59.8109 28.9853 64.3384C26.5626 65.0314 23.2107 66.8268 23.1879 63.8481C23.0375 43.7666 22.293 43.7571 23.9656 42.987ZM24.2226 54.1534C24.3683 64.4669 23.8419 64.3574 25.2945 64.1794C26.1703 64.0709 28.2656 63.1323 42.1232 59.4587C44.6992 58.7752 42.98 58.6876 42.98 40.9298C42.98 39.3381 43.0104 39.618 33.5889 41.7799C21.8475 44.4739 24.0437 41.362 24.2226 54.1534Z" fill="#111827"/>
<path d="M33.5223 51.0604C33.4271 51.6925 33.1977 51.6439 28.2523 52.6168C27.2232 52.8186 26.4436 52.9281 26.692 51.9676C27.8106 47.7066 33.7451 49.6258 33.5223 51.0604Z" fill="#111827"/>
<path d="M29.1175 48.8031C26.8433 48.8126 26.9118 45.1552 29.7839 45.0904C32.1228 45.0352 32.1552 48.7897 29.1175 48.8031Z" fill="#111827"/>
<path d="M34.8188 45.0813C33.9506 45.0889 33.9373 44.532 34.5637 44.3312C42.9808 41.6295 44.6154 43.363 34.8188 45.0813Z" fill="#111827"/>
<path d="M35.0768 47.0834C34.3419 47.012 34.3553 46.3933 34.9588 46.2181C40.3726 44.6483 40.6391 45.6165 39.7252 46.0725C38.1992 46.5092 36.6465 46.8469 35.0768 47.0834Z" fill="#111827"/>
<path d="M29.2697 61.2133C28.2073 60.9115 28.4348 60.8706 27.5971 61.5627C27.5217 61.6249 27.4304 61.6649 27.3335 61.6779C27.2366 61.691 27.138 61.6766 27.0488 61.6365C26.9596 61.5963 26.8834 61.5321 26.829 61.4509C26.7744 61.3697 26.7438 61.2749 26.7403 61.1771C26.7013 60.0738 26.8098 60.2775 25.8912 59.694C25.8087 59.6416 25.7425 59.5672 25.7001 59.4791C25.6576 59.391 25.6407 59.2928 25.6512 59.1956C25.6617 59.0985 25.6992 59.0062 25.7595 58.9292C25.8197 58.8522 25.9003 58.7936 25.9921 58.7601C27.0297 58.3793 26.8679 58.5459 27.1402 57.494C27.1647 57.3995 27.2153 57.3136 27.2861 57.2463C27.3569 57.1789 27.4451 57.1327 27.5408 57.1129C27.6365 57.0931 27.7358 57.1005 27.8275 57.1342C27.9192 57.1679 27.9997 57.2266 28.0598 57.3036C28.7423 58.1718 28.5357 58.0718 29.6181 58.0042C29.7158 57.9981 29.8133 58.0195 29.8994 58.0658C29.9857 58.1122 30.0571 58.1817 30.1059 58.2666C30.1546 58.3515 30.1786 58.4483 30.1752 58.5461C30.1718 58.644 30.141 58.7388 30.0865 58.8201C29.4696 59.7368 29.502 59.5074 29.9027 60.5193C29.9381 60.6103 29.9472 60.7094 29.9293 60.8053C29.9114 60.9012 29.867 60.9903 29.8013 61.0624C29.7355 61.1346 29.6509 61.1868 29.557 61.2135C29.463 61.2401 29.3636 61.2401 29.2697 61.2133Z" fill="#F56630"/>
<path d="M35.3731 59.8038C34.3107 59.502 34.5382 59.4611 33.7005 60.1532C33.625 60.215 33.5337 60.2547 33.4369 60.2676C33.3401 60.2804 33.2416 60.266 33.1525 60.2259C33.0635 60.1858 32.9875 60.1217 32.9329 60.0407C32.8783 59.9598 32.8474 59.8652 32.8437 59.7676C32.8047 58.6634 32.9132 58.868 31.9946 58.2835C31.912 58.2312 31.8458 58.1567 31.8033 58.0687C31.761 57.9806 31.744 57.8824 31.7545 57.7852C31.765 57.688 31.8026 57.5957 31.8628 57.5187C31.923 57.4418 32.0036 57.3832 32.0955 57.3497C33.1321 56.9689 32.9713 57.1364 33.2378 56.0836C33.2626 55.989 33.3132 55.9033 33.3841 55.836C33.455 55.7686 33.5433 55.7225 33.639 55.7028C33.7346 55.683 33.834 55.6903 33.9258 55.7239C34.0176 55.7576 34.0981 55.8162 34.1584 55.8932C34.8409 56.7614 34.6343 56.6604 35.7167 56.5938C35.8144 56.5877 35.9118 56.609 35.998 56.6554C36.0842 56.7018 36.1557 56.7713 36.2044 56.8562C36.2531 56.941 36.2771 57.0379 36.2737 57.1357C36.2703 57.2334 36.2396 57.3283 36.1851 57.4096C35.5682 58.3264 35.6006 58.0969 36.0013 59.1089C36.0364 59.1995 36.0455 59.298 36.0278 59.3935C36.0102 59.4891 35.9663 59.5778 35.9012 59.6498C35.836 59.7218 35.7521 59.7744 35.6589 59.8016C35.5656 59.8288 35.4666 59.8296 35.3731 59.8038Z" fill="#F56630"/>
<path d="M41.2426 58.3951C40.1812 58.0924 40.4078 58.0524 39.57 58.7445C39.4945 58.8064 39.4031 58.846 39.3063 58.8589C39.2093 58.8717 39.1108 58.8572 39.0217 58.817C38.9327 58.7768 38.8566 58.7126 38.8021 58.6315C38.7476 58.5504 38.7168 58.4556 38.7133 58.358C38.6743 57.2547 38.7828 57.4584 37.8641 56.8748C37.7816 56.8225 37.7153 56.748 37.673 56.66C37.6305 56.5719 37.6136 56.4737 37.6242 56.3766C37.6346 56.2794 37.6721 56.187 37.7324 56.11C37.7926 56.0331 37.8732 55.9746 37.965 55.941C39.0027 55.5602 38.8408 55.7268 39.1131 54.6749C39.1379 54.5803 39.1885 54.4946 39.2594 54.4273C39.3302 54.36 39.4186 54.3139 39.5143 54.2941C39.61 54.2743 39.7093 54.2816 39.8011 54.3152C39.8929 54.3489 39.9734 54.4076 40.0336 54.4845C40.7152 55.3527 40.5096 55.2527 41.591 55.1861C41.6887 55.1797 41.7862 55.2008 41.8724 55.2471C41.9587 55.2934 42.0303 55.3628 42.079 55.4477C42.1278 55.5325 42.1517 55.6293 42.1483 55.7272C42.1449 55.8249 42.114 55.9197 42.0594 56.0009C41.4425 56.9177 41.4749 56.6882 41.8757 57.7002C41.9112 57.7913 41.9206 57.8905 41.9027 57.9865C41.8849 58.0827 41.8406 58.1719 41.7748 58.2441C41.709 58.3164 41.6243 58.3688 41.5302 58.3955C41.4362 58.4221 41.3366 58.422 41.2426 58.3951Z" fill="#F56630"/>
<path d="M136.568 55.7692C134.02 55.8425 130.406 54.1023 128.105 52.9952C120.854 49.5063 119.745 51.9414 107.461 48.4867C105.247 47.8641 102.953 47.9308 103.92 50.1479C107.289 57.8778 125.126 57.1543 135.607 73.208C139.525 79.2054 145.231 82.5276 152.221 83.7575C153.478 83.9793 153.459 83.9479 153.965 82.7104C158.995 70.4636 160.591 70.4626 159.186 69.9352C152.903 67.5782 147.796 60.0292 144.335 54.3003C140.459 47.8898 136.827 43.6108 128.756 43.4747C118.052 43.2957 120.468 45.1225 117.987 42.9559C121.426 42.4002 124.904 42.1199 128.387 42.1172C146.235 42.1591 144.007 61.2125 159.95 69.2289C160.358 69.4335 160.446 69.3964 161.277 67.5829C162.085 65.8237 163.817 66.016 167.801 67.2973C178.433 70.7168 186.478 75.4956 172.664 70.1656C172.182 69.9752 172.051 70.0761 171.911 70.5359C171.054 73.3489 166.841 84.3277 163.914 88.1536C163.278 88.9847 162.594 89.2817 163.218 87.5568C164.651 83.5957 170.116 71.9353 170.738 70.0285C170.848 69.6868 170.917 69.4821 170.476 69.3222C164.166 67.0289 163.432 66.908 162.54 68.2388C159.243 73.9493 156.425 79.9226 154.113 86.0974C153.315 88.2736 152.655 90.544 154.303 92.1214C158.338 95.9825 174.545 102.164 174.084 103.237C173.296 105.076 158.674 97.3562 156.663 96.1034C150.179 92.0548 151.237 89.9214 152.988 85.0826C150.306 84.897 147.682 84.2192 145.245 83.0835C131.768 77.3928 135.761 67.8933 115.515 59.1629C111.047 57.2361 104.957 55.0438 102.924 50.7381C101.735 48.223 103.304 45.9783 109.403 47.7194C118.631 50.3497 121.894 48.2906 129.498 52.2831C136.475 55.9529 136.034 55.1542 136.568 55.7692Z" fill="#111827"/>
<path d="M117.662 24.1022C117.62 31.4579 113.91 37.6409 112.79 38.5719C112.423 38.8784 111.993 38.6576 119.603 45.6668C122.184 48.0467 122.657 48.2799 121.664 48.5865C120.229 49.0301 113.661 47.8896 112.816 47.7202C110.941 47.3394 110.056 46.3503 107.803 43.9666C106.821 42.93 105.599 46.3465 97.5335 47.6136C83.1295 49.8783 70.7179 40.2578 68.795 27.2808C65.9705 8.23024 85.9692 -5.38367 103.09 2.42522C111.704 6.35489 117.026 13.4489 117.662 24.1022ZM116.278 24.3002C116.278 13.3089 107.711 2.19008 93.5525 1.77313C82.2489 1.43994 70.9759 9.58868 70.1591 22.1897C69.1519 37.6437 82.7249 48.7064 97.4621 46.237C102.687 45.3996 107.446 42.7355 110.892 38.7184C114.337 34.7014 116.246 29.5923 116.278 24.3002ZM117.94 47.0367C116.533 45.0127 114.897 43.1573 113.067 41.5068C113.002 41.4203 112.919 41.3485 112.825 41.2959C112.731 41.2434 112.626 41.2113 112.518 41.2018C112.41 41.1922 112.301 41.2055 112.199 41.2407C112.097 41.2758 112.003 41.3321 111.924 41.4059C111.364 41.9599 111.639 42.2883 115.643 45.6897C116.283 46.3241 117.073 46.7874 117.94 47.0367Z" fill="#111827"/>
<path d="M117.459 63.0855C117.367 63.6384 117.143 64.1609 116.806 64.6086C116.203 65.5054 116.624 66.2812 116.778 67.1084C116.844 67.4559 117.077 67.2884 117.275 67.2417C117.456 67.1683 117.649 67.1343 117.845 67.1423C118.039 67.1503 118.23 67.2 118.403 67.288C118.578 67.3759 118.73 67.5002 118.852 67.6524C118.974 67.8045 119.061 67.981 119.109 68.1699C119.709 69.9272 119.837 74.6565 118.965 70.3679C118.63 68.7163 118.386 67.6539 117.488 67.79C117.148 67.8415 116.964 67.9385 117.069 68.3526C118.198 72.8202 118.141 74.9802 120.115 73.4056C122.231 71.7178 123.581 68.5764 122.96 64.6733C123.127 64.7474 123.274 64.8611 123.387 65.0046C123.499 65.1482 123.575 65.3171 123.608 65.4968C125.442 71.5065 118.858 73.7636 123.745 75.7988C124.35 76.0502 123.752 73.6379 126.361 73.9711C127.478 74.0502 128.54 74.4913 129.384 75.2277C128.707 76.0216 124.658 73.1134 124.568 75.934C124.554 76.3691 125.038 76.2948 125.297 76.3919C130.129 78.2111 131.016 75.8902 130.03 74.1891C128.617 71.753 126.59 71.3456 126.167 70.723C126.738 70.0643 129.621 71.4198 130.87 74.0434C131.098 74.5196 131.189 75.0497 131.133 75.5746C131.077 76.0994 130.876 76.5983 130.553 77.0156C130.23 77.4329 129.797 77.7521 129.302 77.9374C128.808 78.1229 128.272 78.1672 127.754 78.0654C126.08 77.7517 124.45 77.2367 122.899 76.5318C122.381 76.3228 121.934 75.9664 121.616 75.5066C121.297 75.0467 121.12 74.5037 121.107 73.9444C117.177 75.9378 117.747 74.6946 115.72 66.5297C114.768 67.1808 113.862 68.1927 111.933 68.2365C109.77 68.286 110.393 66.8086 110.654 59.3938C110.677 58.7427 111.913 57.5127 111.231 66.5201C111.096 68.3127 114.211 66.8371 115.282 65.0208C115.959 63.8727 116.286 63.1797 116.568 62.7228C117.258 61.609 117.596 61.8175 117.459 63.0855Z" fill="#111827"/>
<path d="M110.141 52.3098C108.087 52.2384 105.635 51.0094 105.847 50.5258C105.989 50.2012 105.982 50.2849 108.993 51.1293C111.438 51.8147 111.538 49.928 112.108 50.4972C112.727 51.116 111.016 52.3402 110.141 52.3098Z" fill="#111827"/>
<path d="M72.3555 24.4583C72.2061 19.5751 73.8636 14.8086 77.0105 11.0716C80.1574 7.33469 84.5724 4.89016 89.4097 4.20637C110.543 0.949735 122.068 25.4711 107.782 38.6967C94.5502 50.9369 72.7153 42.1123 72.3555 24.4583ZM93.2479 43.2118C112.875 43.2327 120.373 17.5033 103.099 7.67816C95.3803 3.28869 85.304 4.57954 79.3228 10.5883C66.5038 23.4644 76.4936 43.1899 93.2479 43.2089V43.2118Z" fill="#111827"/>
<path d="M101.336 14.1713C101.346 30.483 102.349 36.4356 102.111 38.8621C102.039 39.6009 102.882 39.4333 103.576 39.1944C103.539 31.9053 103.253 20.4333 102.584 12.7186C102.421 10.8223 101.143 10.9175 99.3477 11.3059C84.6057 14.4969 79.032 15.6763 76.537 16.2913C76.2123 16.3713 76.2847 16.5893 76.0096 17.5365C75.998 17.5752 75.9975 17.6164 76.0081 17.6554C76.0189 17.6944 76.0404 17.7296 76.0702 17.7569C76.1 17.7842 76.1369 17.8026 76.1767 17.8099C76.2165 17.8173 76.2576 17.8132 76.2952 17.7982C78.2476 17.1043 81.7318 16.7958 87.829 15.3955C101.383 12.2836 101.334 11.8818 101.336 14.1713Z" fill="#F56630"/>
<path d="M89.5943 20.1466C88.3434 20.1561 88.3244 19.3564 89.2278 19.0661C101.338 15.1717 103.693 17.6734 89.5943 20.1466Z" fill="#F56630"/>
<path d="M89.9597 23.0301C88.9021 22.9273 88.9211 22.0344 89.7903 21.783C97.582 19.5279 97.9666 20.9187 96.6444 21.5746C94.4492 22.2018 92.2168 22.688 89.9597 23.0301Z" fill="#F56630"/>
<path d="M90.389 41.3374C88.8659 40.9014 89.201 40.8328 87.9825 41.8371C87.874 41.9275 87.7424 41.9856 87.6025 42.0049C87.4627 42.0242 87.3203 42.0038 87.1914 41.9462C87.0625 41.8886 86.9524 41.7961 86.8734 41.679C86.7945 41.5619 86.75 41.4251 86.7449 41.2841C86.6878 39.6991 86.8534 39.998 85.5236 39.1507C85.4051 39.0747 85.3102 38.967 85.2498 38.8398C85.1893 38.7126 85.1657 38.5712 85.1815 38.4312C85.1974 38.2913 85.2522 38.1587 85.3395 38.0483C85.4269 37.9378 85.5434 37.8542 85.6759 37.8066C87.1657 37.262 86.9334 37.5124 87.3275 35.9845C87.3627 35.8483 87.4352 35.7247 87.537 35.6275C87.6386 35.5304 87.7654 35.4637 87.9031 35.435C88.0407 35.4061 88.1837 35.4164 88.3158 35.4646C88.448 35.5126 88.564 35.5969 88.6507 35.7075C89.6284 36.9565 89.3171 36.8127 90.8945 36.7156C91.0354 36.7068 91.1753 36.7374 91.2991 36.8042C91.4238 36.8711 91.5266 36.9713 91.5961 37.0936C91.6665 37.216 91.7008 37.3554 91.6951 37.4962C91.6903 37.637 91.6456 37.7735 91.5666 37.8903C90.6813 39.2059 90.7231 38.868 91.301 40.335C91.3524 40.4661 91.3667 40.6093 91.3419 40.7481C91.3162 40.8869 91.2524 41.0158 91.1572 41.1202C91.062 41.2246 90.9402 41.3002 90.8041 41.3386C90.6689 41.377 90.5242 41.3766 90.389 41.3374Z" fill="#F56630"/>
<path d="M98.8347 39.3102C97.3116 38.8751 97.6467 38.8066 96.4282 39.8109C96.3197 39.9003 96.1883 39.9576 96.0484 39.9763C95.9094 39.9949 95.7675 39.9742 95.639 39.9165C95.5115 39.8587 95.402 39.7663 95.323 39.6495C95.2449 39.5328 95.2002 39.3965 95.1954 39.2559C95.1373 37.6709 95.303 37.9698 93.9731 37.1235C93.8541 37.0479 93.7589 36.9408 93.698 36.814C93.6371 36.6872 93.6133 36.546 93.6285 36.4061C93.6428 36.2662 93.697 36.1334 93.7837 36.0225C93.8703 35.9116 93.9855 35.8271 94.1178 35.7784C95.6076 35.2349 95.3753 35.4843 95.7694 33.9573C95.8047 33.8209 95.877 33.6971 95.9779 33.5997C96.0798 33.5023 96.2073 33.4355 96.3444 33.4066C96.4825 33.3778 96.6253 33.3881 96.7576 33.4365C96.8899 33.4849 97.006 33.5693 97.0927 33.6803C98.0713 34.9293 97.759 34.7855 99.3364 34.6884C99.4773 34.6796 99.6172 34.7103 99.741 34.7771C99.8657 34.844 99.9685 34.9442 100.038 35.0664C100.108 35.1888 100.143 35.3282 100.137 35.4691C100.132 35.6099 100.088 35.7464 100.009 35.8631C99.1232 37.1787 99.1651 36.8408 99.7439 38.3068C99.7953 38.4379 99.8095 38.5808 99.7848 38.7193C99.7591 38.8579 99.6953 38.9867 99.6011 39.0911C99.5068 39.1955 99.385 39.2713 99.2488 39.3101C99.1137 39.3488 98.9699 39.3488 98.8347 39.3102Z" fill="#F56630"/>
<path d="M79.0475 26.8807C80.4469 24.9282 82.7525 24.8302 82.3232 26.2429C81.8939 27.6556 82.5793 28.5552 83.5198 28.2572C83.6837 28.1644 83.8266 28.0386 83.9392 27.8876C84.0519 27.7366 84.1318 27.5639 84.1741 27.3804C84.2164 27.1968 84.22 27.0064 84.1847 26.8215C84.1494 26.6364 84.076 26.4608 83.9691 26.3057C83.827 26.1647 83.7329 25.9825 83.7002 25.7851C83.6675 25.5876 83.698 25.3848 83.7871 25.2055C83.8763 25.0263 84.0198 24.8798 84.197 24.7868C84.3743 24.6938 84.5764 24.6589 84.7745 24.6874C87.1172 25.0453 89.7646 27.3015 88.7299 28.1973C87.7693 29.0283 79.9643 30.0783 79.3474 30.1469C77.1598 30.3896 77.8804 28.5047 79.0475 26.8807Z" fill="#F56630"/>
<path d="M83.5952 22.994C83.2155 23.4693 82.6669 23.7798 82.0639 23.8605C81.4609 23.9411 80.85 23.786 80.3586 23.4272C79.8525 22.9914 79.5249 22.3843 79.438 21.722C79.3513 21.0599 79.5116 20.3888 79.8883 19.8374C81.9179 17.3851 85.5163 20.598 83.5952 22.994Z" fill="#F56630"/>
</svg>
